<svg width="67" height="54" viewBox="0 0 67 54" fill="none" xmlns="http://www.w3.org/2000/svg">
<g clip-path="url(#clip0_50_388)">
<path d="M17.4763 47.9214C16.9642 47.8638 16.4464 47.9593 15.9885 48.1959C15.5306 48.4324 15.1532 48.7994 14.9038 49.2505C14.6544 49.7015 14.5444 50.2164 14.5875 50.73C14.6307 51.2436 14.8251 51.7328 15.1463 52.1359C15.4675 52.539 15.9009 52.8379 16.3919 52.9947C16.8828 53.1515 17.4093 53.1593 17.9046 53.017C18.4 52.8747 18.8421 52.5888 19.175 52.1953C19.5079 51.8019 19.7167 51.3185 19.7749 50.8064C19.8137 50.466 19.7849 50.1213 19.6904 49.7921C19.5958 49.4628 19.4372 49.1554 19.2237 48.8874C19.0102 48.6194 18.746 48.3962 18.4462 48.2304C18.1464 48.0647 17.8168 47.9597 17.4763 47.9214Z" fill="url(#paint0_linear_50_388)"/>
<path d="M54.8995 5.53391C55.2928 5.57588 55.6897 5.50044 56.0401 5.31711C56.3906 5.13378 56.6789 4.85076 56.8687 4.50377C57.0585 4.15677 57.1413 3.76134 57.1067 3.36735C57.072 2.97336 56.9214 2.59845 56.6739 2.28993C56.4265 1.98141 56.0932 1.75309 55.7161 1.63376C55.339 1.51444 54.935 1.50947 54.5551 1.61946C54.1752 1.72946 53.8364 1.9495 53.5814 2.25183C53.3264 2.55417 53.1666 2.92524 53.1223 3.31826C53.0926 3.58058 53.1152 3.84616 53.1886 4.09972C53.262 4.35329 53.3849 4.58983 53.55 4.79575C53.7152 5.00167 53.9195 5.17289 54.1511 5.29957C54.3827 5.42626 54.637 5.50589 54.8995 5.53391Z" fill="url(#paint1_linear_50_388)"/>
<path d="M7.39942 51.6891C7.63235 51.7158 7.86795 51.6728 8.07641 51.5655C8.28488 51.4582 8.45683 51.2915 8.5705 51.0864C8.68416 50.8813 8.73443 50.6472 8.71495 50.4135C8.69547 50.1799 8.6071 49.9573 8.46105 49.7739C8.31499 49.5905 8.1178 49.4545 7.89444 49.3832C7.67109 49.312 7.43161 49.3085 7.20632 49.3734C6.98102 49.4383 6.78002 49.5686 6.62879 49.7477C6.47756 49.9269 6.3829 50.1469 6.35676 50.3799C6.32177 50.6917 6.4119 51.0047 6.60737 51.2501C6.80284 51.4955 7.08769 51.6534 7.39942 51.6891Z" fill="url(#paint2_linear_50_388)"/>
<path d="M61.339 19.6868C61.4764 19.7025 61.6145 19.6629 61.7229 19.5768C61.8312 19.4907 61.9009 19.3651 61.9166 19.2276C61.9323 19.0902 61.8927 18.9521 61.8066 18.8438C61.7205 18.7354 61.5949 18.6658 61.4575 18.65C61.3894 18.6423 61.3204 18.648 61.2546 18.6668C61.1887 18.6857 61.1272 18.7173 61.0736 18.76C61.0199 18.8026 60.9752 18.8554 60.942 18.9153C60.9087 18.9752 60.8876 19.0411 60.8798 19.1092C60.8721 19.1772 60.8778 19.2462 60.8966 19.312C60.9155 19.3779 60.9471 19.4394 60.9898 19.4931C61.0324 19.5467 61.0852 19.5914 61.1451 19.6246C61.205 19.6579 61.2709 19.679 61.339 19.6868Z" fill="url(#paint3_linear_50_388)"/>
<path d="M26.1436 26.9792L23.4599 22.1687C23.1851 21.6775 23.1162 21.0974 23.2684 20.5555C23.4205 20.0137 23.7812 19.5542 24.2715 19.2777C24.4713 19.1633 24.6181 18.975 24.6801 18.7533C24.7422 18.5316 24.7146 18.2944 24.6033 18.0929L22.7372 14.7754C22.6341 14.5914 22.5683 14.3889 22.5434 14.1794C22.5186 13.97 22.5353 13.7577 22.5925 13.5548C22.6497 13.3518 22.7463 13.162 22.8769 12.9964C23.0074 12.8307 23.1693 12.6924 23.3533 12.5893C23.5373 12.4863 23.7398 12.4204 23.9492 12.3956C24.1586 12.3708 24.3709 12.3874 24.5739 12.4447C24.7769 12.5019 24.9666 12.5985 25.1323 12.729C25.2979 12.8596 25.4362 13.0215 25.5393 13.2055L27.441 16.5941C27.5441 16.7737 27.7138 16.9055 27.9134 16.9609C28.1129 17.0164 28.3263 16.991 28.5073 16.8903L31.6116 15.1486C31.7922 15.0464 31.9253 14.8772 31.9818 14.6775C32.0384 14.4779 32.0139 14.2639 31.9137 14.0822L30.018 10.7054C29.8056 10.3353 29.7486 9.89605 29.8597 9.48401C29.9708 9.07197 30.2408 8.72081 30.6104 8.50758H30.646C31.0058 8.30516 31.4313 8.25385 31.829 8.36493C32.2266 8.47601 32.5639 8.74039 32.7668 9.1L34.6507 12.459C34.7652 12.6586 34.9531 12.8057 35.1745 12.8687C35.3958 12.9318 35.633 12.906 35.8355 12.7967C36.326 12.5214 36.9056 12.4516 37.4474 12.6026C37.9892 12.7536 38.4491 13.1131 38.7265 13.6024C39.3723 14.7517 40.2491 16.3216 41.1673 17.9448L51.5406 9.18886C47.3721 4.73164 41.7745 1.87472 35.7194 1.11399C29.6643 0.353271 23.534 1.73677 18.3925 5.02435C13.2511 8.31193 9.42306 13.296 7.57297 19.1115C5.72287 24.927 5.96751 31.2068 8.26439 36.8607L0.634033 52.157L27.8497 29.183C27.1654 28.5457 26.5892 27.8014 26.1436 26.9792Z" fill="url(#paint4_linear_50_388)"/>
<path d="M24.4432 47.5126C26.3038 47.3034 28.0932 46.6769 29.678 45.6799C31.2628 44.6829 32.6021 43.341 33.5961 41.7543C35.32 38.8633 36.0724 34.8822 35.7643 31.0493C33.7826 31.5707 31.6793 31.3604 29.8401 30.4568L12.2749 43.4901C12.974 44.3421 13.7258 45.1494 14.5261 45.9071C17.6396 47.2832 21.0545 47.836 24.4432 47.5126Z" fill="url(#paint5_linear_50_388)"/>
<path d="M66.7595 3.00427L42.3697 21.156C42.59 22.6325 42.431 24.1408 41.9077 25.5389C41.3843 26.937 40.5137 28.1789 39.378 29.1477C40.1362 34.2366 39.2535 39.7046 36.8661 43.7034C35.5744 45.7853 33.8297 47.5488 31.7618 48.8628C29.694 50.1767 27.3563 51.0072 24.9229 51.2923C24.372 51.3634 23.8092 51.3989 23.2405 51.4226C27.7863 53.1499 32.7239 53.5745 37.4979 52.6486C42.2718 51.7227 46.6927 49.483 50.2632 46.1815C53.8337 42.8801 56.4121 38.6478 57.7084 33.9608C59.0047 29.2739 58.9674 24.3182 57.6007 19.6512L66.7595 3.00427Z" fill="url(#paint6_linear_50_388)"/>
</g>
<defs>
<linearGradient id="paint0_linear_50_388" x1="17.1861" y1="-1.18417" x2="17.1861" y2="51.7306" gradientUnits="userSpaceOnUse">
<stop stop-color="#81E4FB"/>
<stop offset="1" stop-color="#2F5291"/>
</linearGradient>
<linearGradient id="paint1_linear_50_388" x1="55.1246" y1="-1.18412" x2="55.1246" y2="51.7307" gradientUnits="userSpaceOnUse">
<stop stop-color="#81E4FB"/>
<stop offset="1" stop-color="#2F5291"/>
</linearGradient>
<linearGradient id="paint2_linear_50_388" x1="7.52975" y1="-1.18405" x2="7.52975" y2="51.7306" gradientUnits="userSpaceOnUse">
<stop stop-color="#81E4FB"/>
<stop offset="1" stop-color="#2F5291"/>
</linearGradient>
<linearGradient id="paint3_linear_50_388" x1="61.3982" y1="-1.18413" x2="61.3982" y2="51.7307" gradientUnits="userSpaceOnUse">
<stop stop-color="#81E4FB"/>
<stop offset="1" stop-color="#2F5291"/>
</linearGradient>
<linearGradient id="paint4_linear_50_388" x1="26.1199" y1="-1.18439" x2="26.1199" y2="51.7304" gradientUnits="userSpaceOnUse">
<stop stop-color="#81E4FB"/>
<stop offset="1" stop-color="#2F5291"/>
</linearGradient>
<linearGradient id="paint5_linear_50_388" x1="24.0522" y1="-1.18423" x2="24.0522" y2="51.7306" gradientUnits="userSpaceOnUse">
<stop stop-color="#81E4FB"/>
<stop offset="1" stop-color="#2F5291"/>
</linearGradient>
<linearGradient id="paint6_linear_50_388" x1="45" y1="-1.18413" x2="45" y2="51.7307" gradientUnits="userSpaceOnUse">
<stop stop-color="#81E4FB"/>
<stop offset="1" stop-color="#2F5291"/>
</linearGradient>
<clipPath id="clip0_50_388">
<rect width="66.0902" height="52.2454" fill="white" transform="translate(0.669434 0.877441)"/>
</clipPath>
</defs>
</svg>
